<svg xmlns="http://www.w3.org/2000/svg" width="500" height="500" viewBox="0 0 500 500">
  <defs>
    <style>
      .cls-1 {
        fill: #444;
      }

      .cls-2 {
        fill: #fafafa;
        stroke: #fafafa;
        stroke-linejoin: round;
        stroke-width: 3px;
        fill-rule: evenodd;
      }
    </style>
  </defs>
  <rect class="cls-1" width="500" height="500"/>
  <path id="W" class="cls-2" d="M436.019,121.323v-0.3h-0.3v-0.3h-0.3l-37.848-6.661h0s-0.3,0-.3,0h0L368.8,118.9h-0.3v0.3h-0.3l-18.772,59.951h0l-8.781,35.123h0v0.3h0l-2.725,61.163L308.244,227.6,292.2,176.43l-10.6-54.2v-0.3h0l-0.3-.3h0l-52.382-4.542h-0.6v0.3h0l-9.387,29.37h0l-11.5,45.721h0l-5.753,33.306-8.781,7.267-17.562,4.542L161.7,189.753h0l-12.414-47.84-4.845-19.984h0v-0.3h-0.3l-74.183-3.633H69.347v0.3h0v0.3h0l15.139,35.123,8.781,50.565h0l12.111,40.876,3.936,48.446h0l23.012,55.41,16.956,59.043h0.3v0.3h0.3l56.015,8.478h0.3c0-.3,0-0.3.3-0.3h0v-0.3h0l-1.816-20.59,21.8-40.876h0l15.139-52.381,4.542-12.112,13.928-9.386,14.837,53.593h0v0.3h0.3l19.68,25.736,5.753,46.326h0v0.3h0.3v0.3h0.3l52.382,2.725h0.3v-0.3h0l21.8-47.537h0.3v-0.3h0l1.817-29.37,15.139-40.876h0v-0.3h0l-0.909-23.617L412.1,220.334h0l9.387-42.693h0l14.533-56.318h0Zm-308.235,47.84L119,137.977,137.473,141ZM138.382,141l9.689,1.514L129.3,167.952Zm-11.2,29.068L86.3,153.419,118.1,137.977Zm0,0.908-17.865,17.259L86.3,154.63Zm0,1.211L121.123,205.8l-11.506-16.653Zm1.211-.6,31.792,18.167L121.729,206.1Zm-8.175,34.82-25.434-2.725,14.231-13.928Zm101.433-38.757,9.386-17.258-2.422,19.378-6.056,6.358Zm0,9.387-11.809,12.717,11.2-20.59ZM306.73,286.947l6.661,0.908L288.26,292.4Zm-27.251,6.964-11.5-12.112,36.637,4.845Zm77.211,19.681L323.383,343.87l-6.358-55.107Zm-39.362-25.737,20.892-9.992,17.864,34.215Zm21.8-9.689,36.94,9.689L357.3,312.683Zm-22.406,9.083-0.3-3.027,16.351-4.845Zm-0.908,0-6.662-.908,6.359-1.817Zm-9.084-1.211-39.665-5.45-12.111-12.717,16.956-61.162,35.426,21.5,7.872,55.41ZM157.76,344.476l-0.908-1.514,16.956-4.239Zm-1.514-.909-0.606-.3h0.3Zm0.3-1.513-6.661-11.809,31.792,5.45Zm-7.267-12.717-17.864-32.7L183.5,279.074v55.713Zm-1.211-.3-15.745-2.423-0.908-28.159Zm54.2-71.457-16.956,18.772,7.873-21.8Zm0.3-.909-8.781-3.633,6.964-19.076Zm-0.908-23.92,9.083,6.056-7.267,16.653Zm-9.387,21.5L184.1,276.652,178.349,249.4Zm-13.928-5.753-0.3-.908,9.991,4.239Zm4.845,27.553-23.617-33,17.864,6.056Zm0,2.12L131.72,295.727l26.645-52.684Zm-51.776,48.143-4.845-.909,3.936-24.222Zm0,0.908v1.514l-3.028-1.817Zm0.908,0.3,16.35,2.725,6.662,12.111-0.909.3-22.1-13.322V327.52Zm20.892,15.442-19.984,5.147-0.908-17.561Zm1.211,0.605,1.514,1.212L142.015,346.9Zm28.765-7.266L164.118,378.69l-6.055-33.306Zm1.211-57.227,41.784,23.92-41.784,31.49v-55.41Zm6.358,2.423,31.187,13.019,3.937,7.267Zm-5.752-3.331,17.864-19.984,18.47,35.123Zm26.645-39.059,40.573,27.856-48.446-9.992ZM248.6,148.271l-18.772,20.287,2.422-20.287H248.6Zm-0.3,1.817-22.406,53.593,3.633-33.609Zm1.514-.908L271,205.5l-45.114.908ZM271,206.406l-16.653,60.557L211.958,238.2l13.323-30.884ZM250.715,149.18l40.27,27.25L271.91,204.892Zm-1.817-1.817-14.231-.3,10.295-5.45ZM245.568,141l31.792-16.35L249.807,147.06Zm-13.02,5.753h-0.606L229.52,119.2l14.836,21.5Zm-1.514,1.514-9.386,17.562-1.817-18.47Zm-2.422,23.012-3.634,31.187-2.422-24.829ZM211.05,237.9l-9.083-6.359,21.5-22.406Zm-18.167,14.836-14.534-6.056,21.8-13.928Zm-15.745-4.542-7.872-2.725,7.872,1.817v0.908Zm-19.681-5.45-26.645,52.685-24.223-49.96Zm-50.868,1.817,14.837-36.94,35.728,34.215Zm19.076,79.935-15.14-30.279,19.681,2.726Zm5.753,5.45,0.6,15.139-5.147-18.167Zm25.434,15.745L153.824,369.3l-20.287-20.286Zm0.6,2.422,5.753,30.581-8.478-8.478Zm6.056,32.1-13.02,25.132,4.239-33.912Zm0.6,0.909,21.195,18.167L150.8,407.152Zm2.423,0.605,36.031,13.626-16.048,3.633Zm-1.817-1.816,19.378-43,19.076,57.832Zm61.768-75.7-0.908,49.657-40.573-18.47Zm2.725-3.33,1.817-2.423,1.211,0.3Zm3.936-1.514,6.056,2.422-10.6.606Zm-6.055,2.725-3.634-6.964,6.662,3.028Zm-4.542-8.175-16.956-33,27.856,33-2.725,3.33Zm-17.864-35.426,43,17.259L234.062,293Zm3.633,0.3,45.418,9.386-5.45,6.661Zm57.226,21.8-4.844-.908-4.542-9.387Zm1.211,0.909,8.478,9.386-13.322-9.992Zm13.02,13.322,35.426-6.358L276.149,332.97Zm36.334-5.753,6.359,55.41-46.023-10.3Zm7.57,56.621,50.565,16.653-45.115,27.554Zm4.542,43.9-31.793-29.37,26.343-14.534Zm-3.331-44.51L365.168,336l9.386,25.434Zm-0.3-.908L357.3,314.5l7.57,20.589Zm33.912-28.765,17.865,16.956-10.6,2.423Zm18.47-27.25,14.534,3.633-32.095,19.984Zm0.606-.909,8.478-11.2,5.753,14.837Zm-0.909-.3-36.031-9.387,43-7.872,1.817,5.45Zm7.873-17.259,6.055-1.211-4.239,5.753ZM411.494,184l-3.331,2.725-31.187-39.362L412.4,171.888Zm1.816-11.506,6.964,4.845-7.569,6.055Zm-7.872,17.562,2.725-2.12,2.422,3.028Zm4.844,1.816L386.06,204.589l18.47-13.928Zm-6.055-2.119L379.1,184.605l-3.937-38.151,32.4,40.876Zm-0.909.605-21.8,16.653-2.12-21.194ZM380.61,206.709l-29.371-26.645,26.948,5.45Zm1.211,1.816,10.9,4.542-8.478,9.689Zm1.514,15.14-10.6,12.717,8.175-26.645Zm-0.909-15.745,27.251-14.534-16.35,18.773Zm28.765-14.837v26.343l-16.956-6.662Zm-2.422-5.753,2.725-2.119-0.3,5.147Zm-33-41.784,38.151-2.725L412.4,170.677Zm36.94-3.633-37.243,2.422,11.506-15.442Zm-25.131-13.626,9.689-13.019L413.31,141Zm-12.717,15.745-5.45-23.92,16.955,8.478Zm3.33,40.573-27.553-5.753,23.617-32.4ZM380,207.617l-18.167,3.028-10.9-29.673Zm0.606,0.908-9.084,28.462-9.386-25.434Zm3.633,60.255-10.6-26.646L390.9,267.568ZM372.434,238.5l12.717-5.753,5.753,33Zm0.909-1.514,10.294-11.808,1.212,6.661Zm11.2-13.02,9.083-10.6,16.653,6.964-24.525,11.2ZM412.4,184.605l6.661-5.147-6.964,10.6Zm0.908-13.322,1.514-25.131,5.753,30.278Zm1.211-29.976-16.047-26.039,36.031,6.358Zm-27.553-13.625-16.653-8.175,26.039-4.239ZM368.8,121.021l5.147,23.92-22.709,31.792Zm-19.075,59.951,11.2,29.673-19.076,3.331Zm11.5,30.581,9.387,25.434-28.159-22.1Zm21.8,57.227-43.6,7.872,32.1-37.545Zm-66.916,14.533-7.569-53.29,29.067,46.932Zm-43.9-77.513,19.378-28.159,15.442,49.051Zm-21.5-57.832,30.278-24.828,9.992,52.382Zm-5.45-7.569-15.442-22.406,49.656,4.541Zm-16.653-20.59,2.422,26.948-11.2-.3Zm-9.387,29.976,1.514,17.562-11.506,21.5Zm2.725,28.765,2.423,27.25-15.745-13.322Zm-19.983,51.776,0.6-3.936,16.048-13.323Zm-18.773,12.111,10.3-8.478,5.147-1.211Zm-22.709-.3,14.231-3.33,2.119,7.569Zm-38.454-35.123,38.757-16.35-2.725,50.565Zm6.662-36.334,19.983-27.553,11.809,45.72Zm9.991-30.581,5.451-16.048,3.936,17.562Zm-0.908-.3-18.167-2.725,23.617-13.928Zm-52.382,13.02L70.558,119.2l46.629,18.167Zm23.012,36.031L93.872,203.075,86,155.538Zm12.111,18.47-14.533,36.334L94.175,204.589Zm9.387,88.413L110.223,293l-3.634-45.417Zm-4.239,30.279L129.6,340.54,115.37,305.719Zm28.159,44.509-4.239,34.821-16.048-54.805Zm32.4,29.37,18.167,15.745-52.079-7.872Zm1.211-.3,16.35-3.634,1.514,19.378Zm16.653-5.451L185.011,336.3l40.27,18.469ZM227.4,303.6l13.02-.909-13.928,48.143Zm6.662-4.845,2.422-1.514,3.028,3.634Zm-0.909-.605-1.514-.606,2.423-3.028,1.816,1.817Zm1.514-4.239L248.6,276.046l1.817,0.909-4.844,12.717-9.084,6.358Zm14.534-18.47,3.633-4.845-1.816,5.45Zm5.45-6.359,4.542,10.3-7.57-3.028Zm24.223,25.737-3.634,37.243L261.01,281.5Zm43,50.262-26.342,14.534-18.773-24.223Zm6.056,45.418-26.342,15.442-5.45-44.509Zm0.908,0.908,23.315,17.865-49.354-2.725Zm24.526,17.562L329.742,390.8l44.509-27.554Zm21.8-49.051L366.076,335.7l10.9-2.422Zm2.12-28.159L358.2,313.592l33.61-20.892Zm9.386-56.621,4.542-6.056,0.908,19.681Zm5.148-9.083-5.753-33.61,24.525-11.2ZM412.1,191.872l8.175-12.111L412.1,215.792v-23.92Zm9.084-16.653-6.056-33,19.378-19.378Zm-79.633,40.27L370.92,238.5l-32.1,37.545Zm-133.225-22.1,16.048,13.625-21.5,17.865ZM201.361,227.3l-0.606,3.936L195,232.748Zm-9.992,7.267-13.625,11.506-2.12-7.57Zm-32.4,6.964,2.422-48.748,13.02,45.115Zm-16.35-118.995L118.4,136.765,72.677,118.9Zm98.405,178.644-3.936-4.542,7.872-5.148Zm10.294-23.92,7.873,3.027-12.414,8.478Z"/>
</svg>
