<?xml version="1.0" encoding="UTF-8"?>
<!DOCTYPE svg PUBLIC "-//W3C//DTD SVG 1.1//EN" "http://www.w3.org/Graphics/SVG/1.1/DTD/svg11.dtd">
<!-- Creator: CorelDRAW 2019 (64-Bit) -->
<svg xmlns="http://www.w3.org/2000/svg" xml:space="preserve" width="3470px" height="3472px" version="1.1" style="shape-rendering:geometricPrecision; text-rendering:geometricPrecision; image-rendering:optimizeQuality; fill-rule:evenodd; clip-rule:evenodd"
viewBox="0 0 3469.37 3470.94"
 xmlns:xlink="http://www.w3.org/1999/xlink"
 xmlns:xodm="http://www.corel.com/coreldraw/odm/2003">
 <defs>
  <style type="text/css">
   <![CDATA[
    .fil1 {fill:#2D333F;fill-rule:nonzero}
    .fil2 {fill:#2D333F;fill-rule:nonzero}
    .fil0 {fill:#D71635;fill-rule:nonzero}
   ]]>
  </style>
 </defs>
 <g id="Слой_x0020_1">
  <metadata id="CorelCorpID_0Corel-Layer"/>
  <path class="fil0" d="M2540.91 1.52c-35.38,19.9 -907.91,906.3 -918.9,934.86 -27.24,70.83 11.88,896.54 -7.91,909.73l-757.69 9.58 -832.25 864.74 -19.58 42.07 -4.58 708.12c144.61,-0.51 684.32,-2.49 947.63,-2.49 301.93,-301.93 598.77,-618.07 893.06,-928.06l3.34 -29.57c13.14,-131.45 -8.87,-857.35 8.74,-878.49 7.73,-10.54 664.15,-10.01 772.69,-10.83l826.83 -871.4c15.1,-15.91 16.66,-18.74 13.75,-34.15 0,-156.26 3.33,-515.96 3.33,-702.29 0,-10 -1.67,-11.25 -14.16,-11.25 -110.65,0 -851.64,-0.57 -914.3,-0.57z"/>
  <g id="_2380545638384">
   <path class="fil1" d="M22.91 10.83l1.25 206.4 749.36 4.99 114.13 130.59 -863.9 2.92 0.41 213.27 1115.08 8.74 112.47 126.21 -613.15 0.84 -602.58 -4.8 168.63 216.4c15.82,8.33 -2.17,8.33 591.82,7.5l605.51 -1.25c1.62,-28.23 -0.26,-54.92 2.36,-83.31 36.65,-35.33 139.93,-127.82 159.82,-161.62 11.24,-18.32 5.83,-28.32 -40.82,-73.72 -22.5,-21.66 -167.04,-166.62 -321.16,-321.99l-280.33 -282 -447.37 0 -447.78 0 -3.75 10.83z"/>
   <path class="fil1" d="M363.64 1057.18c-32.07,0.83 -44.98,2.5 -44.98,6.25l209.52 215.35c224.52,0 641.44,-4.58 873.49,-4.58l-2.09 -218.27c-108.73,0 -1035.94,-0.32 -1035.94,1.25z"/>
   <polygon class="fil1" points="656.06,1411.8 841.83,1619.44 1402.08,1623.68 1400.83,1407.91 "/>
  </g>
  <g id="_2380545587952">
   <path class="fil2" d="M3447.91 3460.11l-1.25 -206.4 -749.36 -5 -114.13 -130.59 863.91 -2.91 -0.42 -213.27 -1115.08 -8.75 -112.47 -126.21 613.15 -0.83 602.58 4.79 -168.62 -216.4c-15.83,-8.33 2.16,-8.33 -591.83,-7.49l-605.51 1.24c-1.61,28.23 0.26,54.93 -2.36,83.31 -36.65,35.34 -139.93,127.82 -159.81,161.62 -11.25,18.33 -5.83,28.33 40.82,73.73 22.49,21.66 167.03,166.62 321.15,321.99l280.33 282 447.37 0 447.78 0 3.75 -10.83z"/>
   <path class="fil2" d="M3107.18 2413.75c32.07,-0.83 44.99,-2.5 44.99,-6.24l-209.52 -215.36c-224.53,0 -641.44,4.59 -873.49,4.59l2.08 218.26c108.73,0 1035.94,0.32 1035.94,-1.25z"/>
   <polygon class="fil2" points="2814.77,2059.14 2628.99,1851.49 2068.74,1847.26 2069.99,2063.02 "/>
  </g>
 </g>
</svg>
